<?xml version="1.0" encoding="utf-8"?>
<!-- Generator: Adobe Illustrator 22.1.0, SVG Export Plug-In . SVG Version: 6.00 Build 0)  -->
<svg version="1.1" id="Layer_1" xmlns="http://www.w3.org/2000/svg" xmlns:xlink="http://www.w3.org/1999/xlink" x="0px" y="0px"
	 viewBox="0 0 24 24" style="enable-background:new 0 0 24 24;" xml:space="preserve">
<style type="text/css">
	.st0{fill:#337AB7;}
</style>
<path class="st0" d="M21,12.5h-7.7c-0.6,0-1.1,0.5-1.1,1.1V19c0,0.6,0.5,1.1,1.1,1.1h3v0.6h-1.2c-0.4,0-0.7,0.3-0.7,0.7
	c0,0.4,0.3,0.7,0.7,0.7h4c0.4,0,0.7-0.3,0.7-0.7c0-0.4-0.3-0.7-0.7-0.7H18v-0.6h3c0.6,0,1.1-0.5,1.1-1.1v-5.3
	C22.1,13,21.6,12.5,21,12.5z M19.1,21.3c0.2,0,0.2,0.2,0,0.2h-4c-0.2,0-0.2-0.2,0-0.2H19.1z M17,20.7v-0.6h0.4v0.6H17z M21.5,19
	c0,0.3-0.2,0.5-0.5,0.5h-7.7c-0.3,0-0.5-0.2-0.5-0.5v-5.3c0-0.3,0.2-0.5,0.5-0.5H21c0.3,0,0.5,0.2,0.5,0.5V19z M15.8,3.2
	c0-0.2-0.2-0.4-0.4-0.4h-0.7c-0.2,0-0.3,0.1-0.3,0.3c0,0.2,0.1,0.3,0.3,0.3h0.5v4.4H8.7V3.4h4.9c0.2,0,0.3-0.1,0.3-0.3
	c0-0.2-0.1-0.3-0.3-0.3H8.5C8.3,2.8,8.1,3,8.1,3.2V8c0,0.2,0.2,0.4,0.4,0.4h6.9c0.2,0,0.4-0.2,0.4-0.4V3.2z M4.9,12.3
	c0.2,0,0.3-0.1,0.3-0.3c0-0.5,0.4-0.9,0.9-0.9h3.2c0,0,0.2,0.4,0.7,0.4h4c0.5,0,0.7-0.4,0.7-0.4h3.2c0.5,0,0.9,0.4,0.9,0.9
	c0,0.2,0.1,0.3,0.3,0.3c0.2,0,0.3-0.1,0.3-0.3c0-0.8-0.7-1.5-1.5-1.5h-3.2c-0.1-0.2-0.4-0.4-0.7-0.4h-1.2V9.4h3
	c0.6,0,1.1-0.5,1.1-1.1V3c0-0.6-0.5-1.1-1.1-1.1H8.1C7.5,1.8,7,2.3,7,3v5.3c0,0.6,0.5,1.1,1.1,1.1h3V10H10c-0.3,0-0.5,0.2-0.7,0.4
	H6.1c-0.8,0-1.5,0.7-1.5,1.5C4.6,12.2,4.7,12.3,4.9,12.3z M8.1,8.8c-0.3,0-0.5-0.2-0.5-0.5V3c0-0.3,0.2-0.5,0.5-0.5h7.7
	c0.3,0,0.5,0.2,0.5,0.5v5.3c0,0.3-0.2,0.5-0.5,0.5H8.1z M12.2,9.4V10h-0.4V9.4H12.2z M10,10.6h4c0.2,0,0.2,0.2,0,0.2h-4
	C9.8,10.9,9.8,10.6,10,10.6z M20.6,13.5h-6.9c-0.2,0-0.4,0.2-0.4,0.4v4.8c0,0.2,0.2,0.4,0.4,0.4h0.9c0.2,0,0.3-0.1,0.3-0.3
	c0-0.2-0.1-0.3-0.3-0.3h-0.7v-4.4h6.5v4.4h-4.7c-0.2,0-0.3,0.1-0.3,0.3c0,0.2,0.1,0.3,0.3,0.3h4.9c0.2,0,0.4-0.2,0.4-0.4v-4.8
	C21,13.7,20.9,13.5,20.6,13.5z M10.7,12.5H4.6c-0.2,0-0.3,0.1-0.3,0.3c0,0.2,0.1,0.3,0.3,0.3h6.1c0.3,0,0.5,0.2,0.5,0.5V19
	c0,0.3-0.2,0.5-0.5,0.5H3c-0.3,0-0.5-0.2-0.5-0.5v-5.3c0-0.3,0.2-0.5,0.5-0.5h0.4c0.2,0,0.3-0.1,0.3-0.3c0-0.2-0.1-0.3-0.3-0.3H3
	c-0.6,0-1.1,0.5-1.1,1.1V19c0,0.6,0.5,1.1,1.1,1.1h3v0.6H4.9c-0.4,0-0.7,0.3-0.7,0.7c0,0.4,0.3,0.7,0.7,0.7h4c0.4,0,0.7-0.3,0.7-0.7
	c0-0.4-0.3-0.7-0.7-0.7H7.6v-0.6h3c0.6,0,1.1-0.5,1.1-1.1v-5.3C11.8,13,11.3,12.5,10.7,12.5z M6.6,20.1H7v0.6H6.6V20.1z M8.8,21.3
	c0.2,0,0.2,0.2,0,0.2h-4c-0.2,0-0.2-0.2,0-0.2H8.8z M3,13.9v4.8c0,0.2,0.2,0.4,0.4,0.4h6.9c0.2,0,0.4-0.2,0.4-0.4v-4.8
	c0-0.2-0.2-0.4-0.4-0.4H3.4C3.1,13.5,3,13.7,3,13.9z M3.6,14.1h6.5v4.4H3.6V14.1z"/>
</svg>
