<svg id="Layer_1" data-name="Layer 1" xmlns="http://www.w3.org/2000/svg" viewBox="0 0 24 24"><title>unlimited-</title><path d="M0,0H24V24H0Z" style="fill:none"/><path d="M15.82,3.22a.4.4,0,0,0-.4-.4h-.68a.3.3,0,0,0-.3.3.31.31,0,0,0,.3.3h.48V7.84H8.69V3.42h4.85a.3.3,0,0,0,.3-.3.29.29,0,0,0-.3-.3H8.48a.39.39,0,0,0-.39.4V8a.39.39,0,0,0,.39.4h6.94a.4.4,0,0,0,.4-.4ZM3,13.91v4.83a.4.4,0,0,0,.4.4h6.94a.39.39,0,0,0,.39-.4V13.91a.38.38,0,0,0-.39-.39H3.37A.39.39,0,0,0,3,13.91Zm.6.21H10.1v4.42H3.57Zm17.06-.6H13.69a.38.38,0,0,0-.39.39v4.83a.39.39,0,0,0,.39.4h.88a.3.3,0,0,0,.3-.3.29.29,0,0,0-.3-.3H13.9V14.12h6.53v4.42H15.77a.3.3,0,0,0-.3.3.31.31,0,0,0,.3.3h4.86a.4.4,0,0,0,.4-.4V13.91A.39.39,0,0,0,20.63,13.52Zm.36-1H13.33a1.15,1.15,0,0,0-1.14,1.14V19a1.15,1.15,0,0,0,1.14,1.14h3v.6H15.18a.72.72,0,0,0,0,1.44h4a.72.72,0,1,0,0-1.44H18v-.6h3A1.14,1.14,0,0,0,22.13,19V13.65A1.14,1.14,0,0,0,21,12.51Zm-1.84,8.83a.12.12,0,1,1,0,.24h-4a.12.12,0,1,1,0-.24ZM17,20.74v-.6h.41v.6ZM21.53,19a.54.54,0,0,1-.54.54H13.33a.54.54,0,0,1-.54-.54V13.65a.55.55,0,0,1,.54-.54H21a.54.54,0,0,1,.54.54ZM4.9,12.29a.3.3,0,0,0,.3-.3.92.92,0,0,1,.92-.92H9.31a.77.77,0,0,0,.66.42h4a.71.71,0,0,0,.65-.42h3.19a.93.93,0,0,1,.93.92.29.29,0,0,0,.3.3.3.3,0,0,0,.3-.3,1.53,1.53,0,0,0-1.53-1.52H14.59a.71.71,0,0,0-.65-.42H12.76V9.44h3A1.14,1.14,0,0,0,16.92,8.3V3a1.14,1.14,0,0,0-1.14-1.14H8.12A1.14,1.14,0,0,0,7,3V8.3A1.14,1.14,0,0,0,8.12,9.44h3v.61H10a.73.73,0,0,0-.66.42H6.12A1.52,1.52,0,0,0,4.6,12,.29.29,0,0,0,4.9,12.29ZM8.12,8.84a.54.54,0,0,1-.54-.54V3a.54.54,0,0,1,.54-.54h7.66a.54.54,0,0,1,.54.54V8.3a.54.54,0,0,1-.54.54Zm4,.6v.61h-.41V9.44ZM10,10.65h4a.12.12,0,0,1,0,.24H10A.12.12,0,0,1,10,10.65Zm.7,1.86H4.58a.3.3,0,0,0-.3.3.29.29,0,0,0,.3.3h6.09a.55.55,0,0,1,.54.54V19a.54.54,0,0,1-.54.54H3A.54.54,0,0,1,2.47,19V13.65A.54.54,0,0,1,3,13.11h.36a.29.29,0,0,0,.3-.3.3.3,0,0,0-.3-.3H3a1.14,1.14,0,0,0-1.14,1.14V19A1.14,1.14,0,0,0,3,20.14H6v.6H4.85a.72.72,0,0,0,0,1.44h4a.72.72,0,0,0,0-1.44H7.64v-.6h3A1.14,1.14,0,0,0,11.81,19V13.65A1.14,1.14,0,0,0,10.67,12.51Zm-4,7.63H7v.6H6.63Zm2.19,1.2a.12.12,0,0,1,0,.24h-4a.12.12,0,1,1,0-.24Z"/></svg>