<?xml version="1.0" encoding="utf-8"?>
<!-- Generator: Adobe Illustrator 22.1.0, SVG Export Plug-In . SVG Version: 6.00 Build 0)  -->
<svg version="1.1" id="Layer_1" xmlns="http://www.w3.org/2000/svg" xmlns:xlink="http://www.w3.org/1999/xlink" x="0px" y="0px"
	 viewBox="0 0 24 24" style="enable-background:new 0 0 24 24;" xml:space="preserve">
<style type="text/css">
	.st0{fill:#444;}
</style>
<path class="st0" d="M19.9,11.1c-0.4,0-0.7,0.3-0.6,0.7c0.1,1.9-0.6,3.8-2,5.2c-1.3,1.4-3.1,2.2-5.1,2.3c-0.1,0-0.2,0-0.2,0
	c-2.5,0-4.9-1.3-6.2-3.5l2.3,0.6c0.4,0.1,0.7-0.1,0.8-0.5c0.1-0.4-0.1-0.7-0.5-0.8l-3.8-1c-0.2,0-0.4,0-0.5,0.1
	c-0.2,0.1-0.3,0.2-0.3,0.4l-1,3.8c-0.1,0.4,0.1,0.7,0.5,0.8c0.1,0,0.1,0,0.2,0c0.3,0,0.6-0.2,0.6-0.5l0.6-2.1c1.6,2.5,4.3,4,7.3,4
	c0.1,0,0.2,0,0.3,0c2.3-0.1,4.4-1,6-2.7c1.6-1.7,2.4-3.9,2.3-6.2C20.6,11.4,20.3,11.1,19.9,11.1z M20.6,4.9
	c-0.4-0.1-0.7,0.2-0.8,0.5l-0.5,2.2C17.8,5,15,3.3,11.9,3.3c-4.8,0-8.6,3.9-8.6,8.6c0,0.4,0.3,0.7,0.7,0.7c0.4,0,0.7-0.3,0.7-0.7
	c0-4,3.3-7.3,7.3-7.3c2.6,0,5,1.4,6.3,3.6L16,7.8c-0.4-0.1-0.7,0.2-0.8,0.5c-0.1,0.4,0.2,0.7,0.5,0.8l3.8,0.8c0.1,0,0.1,0,0.2,0
	c0.1,0,0.2,0,0.3-0.1c0.1-0.1,0.3-0.2,0.3-0.4l0.8-3.8C21.2,5.3,21,4.9,20.6,4.9z"/>
</svg>
