<svg id="Layer_1" data-name="Layer 1" xmlns="http://www.w3.org/2000/svg" viewBox="0 0 24 24"><title>unlimited-</title><path d="M0,0H24V24H0Z" style="fill:none"/><path d="M20.61,4.85a.65.65,0,0,0-.78.51l-.49,2.25A8.62,8.62,0,0,0,3.28,12a.67.67,0,1,0,1.33,0,7.29,7.29,0,0,1,13.6-3.66L16,7.83a.66.66,0,0,0-.78.51.66.66,0,0,0,.51.79l3.79.81a.58.58,0,0,0,.5-.09.64.64,0,0,0,.29-.42l.81-3.79A.66.66,0,0,0,20.61,4.85ZM20,11.1a.67.67,0,0,0-.65.69,7.29,7.29,0,0,1-7,7.53H12A7.33,7.33,0,0,1,5.8,15.87l2.31.61A.65.65,0,0,0,8.92,16a.66.66,0,0,0-.47-.82l-3.75-1a.67.67,0,0,0-.5.06.71.71,0,0,0-.31.41l-1,3.75a.66.66,0,0,0,.46.81l.18,0a.66.66,0,0,0,.64-.49l.56-2.11a8.61,8.61,0,0,0,7.28,4h.29a8.63,8.63,0,0,0,8.33-8.91A.67.67,0,0,0,20,11.1Z"/></svg>