<svg id="Layer_1" data-name="Layer 1" xmlns="http://www.w3.org/2000/svg" viewBox="0 0 24 24"><title>unlimited-</title><path d="M0,0H24V24H0Z" style="fill:none"/><path d="M20.49,1.82h-17A1.69,1.69,0,0,0,1.82,3.51V17.77a1.7,1.7,0,0,0,1.69,1.7H9v.68H6.57a.31.31,0,0,0-.24.1.35.35,0,0,0-.1.24v1.35a.35.35,0,0,0,.1.24.31.31,0,0,0,.24.1H17.43a.31.31,0,0,0,.24-.1.35.35,0,0,0,.1-.24V20.49a.35.35,0,0,0-.1-.24.31.31,0,0,0-.24-.1H15.05v-.68h5.44a1.7,1.7,0,0,0,1.69-1.7V3.51A1.69,1.69,0,0,0,20.49,1.82Zm-3.4,19v.67H6.91v-.67Zm-7.47-.68v-.68h4.76v.68ZM21.5,17.77a1,1,0,0,1-1,1h-17a1,1,0,0,1-1-1v-1h19Zm0-1.7H2.5V3.51a1,1,0,0,1,1-1h17a1,1,0,0,1,1,1ZM17.09,6.93a1,1,0,0,0-.64-1,1,1,0,0,0-1.12.26L13,5a.59.59,0,0,0,0-.14,1,1,0,1,0-2,0A.59.59,0,0,0,11,5L8.67,6.22A1,1,0,1,0,7.59,7.86v2.51A1,1,0,1,0,8.65,12L11,13.53a1,1,0,1,0,2,0L15.35,12a1,1,0,0,0,1.74-.74,1,1,0,0,0-.68-.92V7.86A1,1,0,0,0,17.09,6.93ZM12,4.53a.34.34,0,1,1-.34.34A.34.34,0,0,1,12,4.53ZM8.94,6.85l2.37-1.24a1,1,0,0,0,1.38,0l2.37,1.24s0,0,0,.06,0,.11,0,.16L12.66,8.51a1,1,0,0,0-1.32,0L8.93,7.07c0-.05,0-.11,0-.16S8.94,6.87,8.94,6.85Zm3.4,2.43A.34.34,0,1,1,12,9,.34.34,0,0,1,12.34,9.28ZM7.93,6.57a.34.34,0,0,1,0,.68.34.34,0,0,1,0-.68Zm0,5.09a.34.34,0,0,1,0-.68.34.34,0,0,1,0,.68Zm3.4,1.28L8.94,11.4s0-.05,0-.08a1,1,0,0,0-.68-1V7.86a1.09,1.09,0,0,0,.33-.19L11,9.1a1,1,0,0,0,.66,1.14v2.5A.94.94,0,0,0,11.33,12.94ZM12,14a.34.34,0,0,1-.34-.34.34.34,0,0,1,.68,0A.34.34,0,0,1,12,14Zm3.05-2.72s0,.06,0,.08l-2.39,1.54a.94.94,0,0,0-.33-.2v-2.5A1,1,0,0,0,13,9.1l2.4-1.43a1.09,1.09,0,0,0,.33.19v2.51A1,1,0,0,0,15.05,11.32Zm1,.34a.34.34,0,0,1,0-.68.34.34,0,0,1,0,.68Zm0-4.41a.34.34,0,0,1,0-.68.34.34,0,1,1,0,.68Z"/></svg>