<?xml version="1.0" encoding="utf-8"?>
<!-- Generator: Adobe Illustrator 22.1.0, SVG Export Plug-In . SVG Version: 6.00 Build 0)  -->
<svg version="1.1" id="Layer_1" xmlns="http://www.w3.org/2000/svg" xmlns:xlink="http://www.w3.org/1999/xlink" x="0px" y="0px"
	 viewBox="0 0 24 24" style="enable-background:new 0 0 24 24;" xml:space="preserve">
<style type="text/css">
	.st0{fill:#337AB7;}
</style>
<path class="st0" d="M17.1,6.9c0-0.4-0.2-0.8-0.6-1s-0.8-0.1-1.1,0.3L13,5c0,0,0-0.1,0-0.1c0-0.6-0.5-1-1-1s-1,0.5-1,1
	c0,0,0,0.1,0,0.1L8.7,6.2C8.4,5.9,7.9,5.8,7.5,6c-0.4,0.2-0.6,0.5-0.6,1c0,0.4,0.3,0.8,0.7,0.9v2.5c-0.4,0.1-0.7,0.5-0.7,1
	c0,0.4,0.3,0.8,0.6,0.9c0.4,0.2,0.8,0.1,1.1-0.2l2.3,1.5c-0.1,0.4,0.1,0.8,0.4,1c0.3,0.2,0.8,0.2,1.1,0c0.3-0.2,0.5-0.6,0.4-1
	l2.3-1.5c0.3,0.3,0.7,0.4,1.1,0.2s0.6-0.5,0.6-1c0-0.4-0.3-0.8-0.7-0.9V7.9C16.8,7.7,17.1,7.4,17.1,6.9z M12,4.5
	c0.2,0,0.3,0.2,0.3,0.3c0,0.2-0.2,0.3-0.3,0.3s-0.3-0.2-0.3-0.3C11.7,4.7,11.8,4.5,12,4.5z M8.9,6.8l2.4-1.2c0.4,0.4,1,0.4,1.4,0
	l2.4,1.2c0,0,0,0,0,0.1c0,0.1,0,0.1,0,0.2l-2.4,1.4c-0.4-0.3-0.9-0.3-1.3,0L8.9,7.1C8.9,7,8.9,7,8.9,6.8C8.9,6.9,8.9,6.9,8.9,6.8z
	 M12.3,9.3c0,0.2-0.2,0.3-0.3,0.3s-0.3-0.2-0.3-0.3c0-0.2,0.2-0.3,0.3-0.3C12.2,8.9,12.3,9.1,12.3,9.3z M7.9,6.6
	c0.2,0,0.3,0.2,0.3,0.3c0,0.2-0.2,0.3-0.3,0.3c-0.2,0-0.3-0.2-0.3-0.3C7.6,6.7,7.7,6.6,7.9,6.6z M7.9,11.7c-0.2,0-0.3-0.2-0.3-0.3
	c0-0.2,0.2-0.3,0.3-0.3c0.2,0,0.3,0.2,0.3,0.3C8.3,11.5,8.1,11.7,7.9,11.7z M11.3,12.9l-2.4-1.5c0,0,0-0.1,0-0.1
	c0-0.4-0.3-0.8-0.7-1V7.9c0.1,0,0.2-0.1,0.3-0.2L11,9.1c-0.1,0.5,0.2,1,0.7,1.1v2.5C11.5,12.8,11.4,12.9,11.3,12.9z M12,14
	c-0.2,0-0.3-0.2-0.3-0.3c0-0.2,0.2-0.3,0.3-0.3s0.3,0.2,0.3,0.3C12.3,13.9,12.2,14,12,14z M15.1,11.3C15.1,11.3,15.1,11.4,15.1,11.3
	l-2.4,1.6c-0.1-0.1-0.2-0.2-0.3-0.2v-2.5c0.5-0.2,0.8-0.6,0.7-1.1l2.4-1.4c0.1,0.1,0.2,0.2,0.3,0.2v2.5
	C15.3,10.5,15.1,10.9,15.1,11.3z M16.1,11.7c-0.2,0-0.3-0.2-0.3-0.3c0-0.2,0.2-0.3,0.3-0.3c0.2,0,0.3,0.2,0.3,0.3
	C16.4,11.5,16.3,11.7,16.1,11.7z M16.1,7.2c-0.2,0-0.3-0.2-0.3-0.3c0-0.2,0.2-0.3,0.3-0.3c0.2,0,0.3,0.2,0.3,0.3
	C16.4,7.1,16.3,7.2,16.1,7.2z M20.5,1.8h-17c-0.9,0-1.7,0.8-1.7,1.7v14.3c0,0.9,0.8,1.7,1.7,1.7h5.4v0.7H6.6c-0.1,0-0.2,0-0.2,0.1
	s-0.1,0.1-0.1,0.2v1.4c0,0.1,0,0.2,0.1,0.2s0.1,0.1,0.2,0.1h10.9c0.1,0,0.2,0,0.2-0.1s0.1-0.1,0.1-0.2v-1.4c0-0.1,0-0.2-0.1-0.2
	s-0.1-0.1-0.2-0.1h-2.4v-0.7h5.4c0.9,0,1.7-0.8,1.7-1.7V3.5C22.2,2.6,21.4,1.8,20.5,1.8z M17.1,20.8v0.7H6.9v-0.7H17.1z M9.6,20.1
	v-0.7h4.8v0.7H9.6z M21.5,17.8c0,0.6-0.5,1-1,1h-17c-0.6,0-1-0.5-1-1v-1h19V17.8z M21.5,16.1h-19V3.5c0-0.6,0.5-1,1-1h17
	c0.6,0,1,0.5,1,1V16.1z"/>
</svg>
