<svg id="Layer_1" data-name="Layer 1" xmlns="http://www.w3.org/2000/svg" viewBox="0 0 24 24"><title>unlimited-</title><path d="M0,0H24V24H0Z" style="fill:none"/><path d="M18.28,5.26h0L15.14,9.51,13.65,7.57a.39.39,0,0,0-.32-.16.45.45,0,0,0-.33.14L10.58,10.3l-1.77-3a.43.43,0,0,0-.36-.2.41.41,0,0,0-.37.2L5.16,12a.43.43,0,0,0,.65.55.54.54,0,0,0,.07-.13L8.42,8.27l1.7,2.93a.42.42,0,0,0,.58.15.39.39,0,0,0,.1-.08L13.27,8.5l1.52,2a.49.49,0,0,0,.34.17.43.43,0,0,0,.33-.17L19,5.77a.42.42,0,0,0-.08-.59A.43.43,0,0,0,18.28,5.26Zm.83-2.09H4.89A2.57,2.57,0,0,0,2.13,5.93v9.53a2.57,2.57,0,0,0,2.76,2.76h5.26V20H9.28a.43.43,0,0,0,0,.85h5.6a.43.43,0,1,0,0-.85h-1V18.22h5.26a2.57,2.57,0,0,0,2.76-2.76V5.93A2.57,2.57,0,0,0,19.11,3.17ZM13,20H11V18.22h2Zm8-4.52a1.75,1.75,0,0,1-1.91,1.91H4.89A1.75,1.75,0,0,1,3,15.46v-.6H21ZM21,14H3V6A1.76,1.76,0,0,1,4.89,4H19.11A1.76,1.76,0,0,1,21,6Z"/></svg>