<?xml version="1.0" encoding="utf-8"?>
<!-- Generator: Adobe Illustrator 22.1.0, SVG Export Plug-In . SVG Version: 6.00 Build 0)  -->
<svg version="1.1" id="Layer_1" xmlns="http://www.w3.org/2000/svg" xmlns:xlink="http://www.w3.org/1999/xlink" x="0px" y="0px"
	 viewBox="0 0 24 24" style="enable-background:new 0 0 24 24;" xml:space="preserve">
<style type="text/css">
	.st0{fill:#337AB7;}
</style>
<path class="st0" d="M18.3,5.3C18.3,5.3,18.3,5.3,18.3,5.3L18.3,5.3l-3.1,4.2l-1.5-1.9c-0.1-0.1-0.2-0.2-0.3-0.2
	c-0.1,0-0.2,0-0.3,0.1l-2.4,2.7l-1.8-3C8.7,7.1,8.6,7.1,8.4,7.1c-0.1,0-0.3,0.1-0.4,0.2L5.2,12C5,12.2,5,12.4,5.2,12.6
	c0.2,0.2,0.4,0.1,0.6-0.1c0,0,0.1-0.1,0.1-0.1l2.5-4.1l1.7,2.9c0.1,0.2,0.4,0.3,0.6,0.2c0,0,0.1-0.1,0.1-0.1l2.5-2.8l1.5,2
	c0.1,0.1,0.2,0.2,0.3,0.2c0.1,0,0.3-0.1,0.3-0.2L19,5.8c0.1-0.2,0.1-0.5-0.1-0.6C18.7,5,18.4,5.1,18.3,5.3z M19.1,3.2H4.9
	c-1.3,0-2.8,0.7-2.8,2.8v9.5c0,2,1.4,2.8,2.8,2.8h5.3V20H9.3c-0.2,0-0.4,0.2-0.4,0.4c0,0.2,0.2,0.4,0.4,0.4h5.6
	c0.2,0,0.4-0.2,0.4-0.4c0-0.2-0.2-0.4-0.4-0.4h-1v-1.8h5.3c2,0,2.8-1.4,2.8-2.8V5.9C21.9,3.9,20.4,3.2,19.1,3.2z M13,20h-2v-1.8h2
	V20z M21,15.5c0,0.6-0.2,1.9-1.9,1.9H4.9c-0.6,0-1.9-0.2-1.9-1.9v-0.6h18V15.5z M21,14H3V5.9C3,4.2,4.3,4,4.9,4h14.2
	C19.7,4,21,4.2,21,5.9V14z"/>
</svg>
