<?xml version="1.0" encoding="utf-8"?>
<!-- Generator: Adobe Illustrator 22.1.0, SVG Export Plug-In . SVG Version: 6.00 Build 0)  -->
<svg version="1.1" id="Layer_1" xmlns="http://www.w3.org/2000/svg" x="0px" y="0px"
     viewBox="0 0 160 91" style="enable-background:new 0 0 160 91;" xml:space="preserve">
<style type="text/css">
	.st0{fill:#001E57;}
	.st1{fill:#181EA9;}
	.st2{fill:#FFFFFF;}
	.st3{fill:#4E4E4E;}
</style>
<g>
	<path class="st0" d="M-183.2,2842.6c-20.3,0-36.8,16.5-36.8,36.8s16.5,36.8,36.8,36.8s36.8-16.5,36.8-36.8
		S-162.9,2842.6-183.2,2842.6z M-183.2,2903.9c-13.5,0-24.5-11-24.5-24.5c0-13.5,11-24.5,24.5-24.5c13.5,0,24.5,11,24.5,24.5
		C-158.7,2892.9-169.7,2903.9-183.2,2903.9z"/>
	<rect x="-121.2" y="2803.9" class="st0" width="12.3" height="110.4"/>
	<polygon class="st0" points="15.6,2844.4 15.6,2914.4 27.9,2914.4 27.9,2856.7 52.4,2856.7 52.4,2914.4 64.7,2914.4 64.7,2856.7 
		89.2,2856.7 89.2,2914.4 101.5,2914.4 101.5,2844.4 	"/>
	<path class="st0" d="M-242.6,2831.7l-17.7,17.7c-6-4.3-13.4-6.8-21.3-6.8c-20.3,0-36.8,16.5-36.8,36.8c0,18.2,13.3,33.4,30.7,36.3
		v13.3c-17.4,2.9-30.7,18.1-30.7,36.3c0,20.3,16.5,36.8,36.8,36.8c20.3,0,36.8-16.5,36.8-36.8c0-18.2-13.3-33.4-30.7-36.3v-13.3
		c17.4-2.9,30.7-18.1,30.7-36.3c0-7.9-2.5-15.3-6.8-21.3l17.7-17.7L-242.6,2831.7z M-257.1,2965.3c0,13.5-11,24.5-24.5,24.5
		c-13.5,0-24.5-11-24.5-24.5s11-24.5,24.5-24.5C-268.2,2940.7-257.1,2951.7-257.1,2965.3z M-281.7,2903.9c-13.5,0-24.5-11-24.5-24.5
		c0-13.5,11-24.5,24.5-24.5c13.5,0,24.5,11,24.5,24.5C-257.1,2892.9-268.2,2903.9-281.7,2903.9z"/>
	<path class="st0" d="M-47,2842.6c-10.4,0-19.9,3.8-26.6,10.8c-6.6,6.7-10.2,16-10.2,26.1c0,10.1,3.5,19.4,9.9,26
		c6.8,7.1,16.1,10.8,26.9,10.8c11.7,0,23.7-5.7,30.1-14.1l-9.8-7.4c-4.1,5.4-12.4,9.2-20.2,9.2c-12.8,0-21.9-7.4-24-19h59.6v-6.1
		c0-9.8-3.5-18.8-9.7-25.5C-27.7,2846.4-36.8,2842.6-47,2842.6z M-70.7,2872.6c2.6-10.7,11.7-17.8,23.8-17.8
		c11.6,0,20.3,7.1,22.7,17.8H-70.7z"/>
</g>
<g>
	<path class="st0" d="M-183.2,2842.6c-20.3,0-36.8,16.5-36.8,36.8s16.5,36.8,36.8,36.8s36.8-16.5,36.8-36.8
		S-162.9,2842.6-183.2,2842.6z M-183.2,2903.9c-13.5,0-24.5-11-24.5-24.5c0-13.5,11-24.5,24.5-24.5c13.5,0,24.5,11,24.5,24.5
		C-158.7,2892.9-169.7,2903.9-183.2,2903.9z"/>
	<rect x="-121.2" y="2803.9" class="st0" width="12.3" height="110.4"/>
	<polygon class="st0" points="15.6,2844.4 15.6,2914.4 27.9,2914.4 27.9,2856.7 52.4,2856.7 52.4,2914.4 64.7,2914.4 64.7,2856.7 
		89.2,2856.7 89.2,2914.4 101.5,2914.4 101.5,2844.4 	"/>
	<path class="st0" d="M-242.6,2831.7l-17.7,17.7c-6-4.3-13.4-6.8-21.3-6.8c-20.3,0-36.8,16.5-36.8,36.8c0,18.2,13.3,33.4,30.7,36.3
		v13.3c-17.4,2.9-30.7,18.1-30.7,36.3c0,20.3,16.5,36.8,36.8,36.8c20.3,0,36.8-16.5,36.8-36.8c0-18.2-13.3-33.4-30.7-36.3v-13.3
		c17.4-2.9,30.7-18.1,30.7-36.3c0-7.9-2.5-15.3-6.8-21.3l17.7-17.7L-242.6,2831.7z M-257.1,2965.3c0,13.5-11,24.5-24.5,24.5
		c-13.5,0-24.5-11-24.5-24.5s11-24.5,24.5-24.5C-268.2,2940.7-257.1,2951.7-257.1,2965.3z M-281.7,2903.9c-13.5,0-24.5-11-24.5-24.5
		c0-13.5,11-24.5,24.5-24.5c13.5,0,24.5,11,24.5,24.5C-257.1,2892.9-268.2,2903.9-281.7,2903.9z"/>
	<path class="st0" d="M-47,2842.6c-10.4,0-19.9,3.8-26.6,10.8c-6.6,6.7-10.2,16-10.2,26.1c0,10.1,3.5,19.4,9.9,26
		c6.8,7.1,16.1,10.8,26.9,10.8c11.7,0,23.7-5.7,30.1-14.1l-9.8-7.4c-4.1,5.4-12.4,9.2-20.2,9.2c-12.8,0-21.9-7.4-24-19h59.6v-6.1
		c0-9.8-3.5-18.8-9.7-25.5C-27.7,2846.4-36.8,2842.6-47,2842.6z M-70.7,2872.6c2.6-10.7,11.7-17.8,23.8-17.8
		c11.6,0,20.3,7.1,22.7,17.8H-70.7z"/>
</g>
<g>
	<path class="st0" d="M-183.2,2842.6c-20.3,0-36.8,16.5-36.8,36.8s16.5,36.8,36.8,36.8s36.8-16.5,36.8-36.8
		S-162.9,2842.6-183.2,2842.6z M-183.2,2903.9c-13.5,0-24.5-11-24.5-24.5c0-13.5,11-24.5,24.5-24.5c13.5,0,24.5,11,24.5,24.5
		C-158.7,2892.9-169.7,2903.9-183.2,2903.9z"/>
	<rect x="-121.2" y="2803.9" class="st0" width="12.3" height="110.4"/>
	<polygon class="st0" points="15.6,2844.4 15.6,2914.4 27.9,2914.4 27.9,2856.7 52.4,2856.7 52.4,2914.4 64.7,2914.4 64.7,2856.7 
		89.2,2856.7 89.2,2914.4 101.5,2914.4 101.5,2844.4 	"/>
	<path class="st0" d="M-242.6,2831.7l-17.7,17.7c-6-4.3-13.4-6.8-21.3-6.8c-20.3,0-36.8,16.5-36.8,36.8c0,18.2,13.3,33.4,30.7,36.3
		v13.3c-17.4,2.9-30.7,18.1-30.7,36.3c0,20.3,16.5,36.8,36.8,36.8c20.3,0,36.8-16.5,36.8-36.8c0-18.2-13.3-33.4-30.7-36.3v-13.3
		c17.4-2.9,30.7-18.1,30.7-36.3c0-7.9-2.5-15.3-6.8-21.3l17.7-17.7L-242.6,2831.7z M-257.1,2965.3c0,13.5-11,24.5-24.5,24.5
		c-13.5,0-24.5-11-24.5-24.5s11-24.5,24.5-24.5C-268.2,2940.7-257.1,2951.7-257.1,2965.3z M-281.7,2903.9c-13.5,0-24.5-11-24.5-24.5
		c0-13.5,11-24.5,24.5-24.5c13.5,0,24.5,11,24.5,24.5C-257.1,2892.9-268.2,2903.9-281.7,2903.9z"/>
	<path class="st0" d="M-47,2842.6c-10.4,0-19.9,3.8-26.6,10.8c-6.6,6.7-10.2,16-10.2,26.1c0,10.1,3.5,19.4,9.9,26
		c6.8,7.1,16.1,10.8,26.9,10.8c11.7,0,23.7-5.7,30.1-14.1l-9.8-7.4c-4.1,5.4-12.4,9.2-20.2,9.2c-12.8,0-21.9-7.4-24-19h59.6v-6.1
		c0-9.8-3.5-18.8-9.7-25.5C-27.7,2846.4-36.8,2842.6-47,2842.6z M-70.7,2872.6c2.6-10.7,11.7-17.8,23.8-17.8
		c11.6,0,20.3,7.1,22.7,17.8H-70.7z"/>
</g>
<g>
	<path class="st0" d="M-183.2,2842.6c-20.3,0-36.8,16.5-36.8,36.8s16.5,36.8,36.8,36.8s36.8-16.5,36.8-36.8
		S-162.9,2842.6-183.2,2842.6z M-183.2,2903.9c-13.5,0-24.5-11-24.5-24.5c0-13.5,11-24.5,24.5-24.5c13.5,0,24.5,11,24.5,24.5
		C-158.7,2892.9-169.7,2903.9-183.2,2903.9z"/>
	<rect x="-121.2" y="2803.9" class="st0" width="12.3" height="110.4"/>
	<polygon class="st0" points="15.6,2844.4 15.6,2914.4 27.9,2914.4 27.9,2856.7 52.4,2856.7 52.4,2914.4 64.7,2914.4 64.7,2856.7 
		89.2,2856.7 89.2,2914.4 101.5,2914.4 101.5,2844.4 	"/>
	<path class="st0" d="M-242.6,2831.7l-17.7,17.7c-6-4.3-13.4-6.8-21.3-6.8c-20.3,0-36.8,16.5-36.8,36.8c0,18.2,13.3,33.4,30.7,36.3
		v13.3c-17.4,2.9-30.7,18.1-30.7,36.3c0,20.3,16.5,36.8,36.8,36.8c20.3,0,36.8-16.5,36.8-36.8c0-18.2-13.3-33.4-30.7-36.3v-13.3
		c17.4-2.9,30.7-18.1,30.7-36.3c0-7.9-2.5-15.3-6.8-21.3l17.7-17.7L-242.6,2831.7z M-257.1,2965.3c0,13.5-11,24.5-24.5,24.5
		c-13.5,0-24.5-11-24.5-24.5s11-24.5,24.5-24.5C-268.2,2940.7-257.1,2951.7-257.1,2965.3z M-281.7,2903.9c-13.5,0-24.5-11-24.5-24.5
		c0-13.5,11-24.5,24.5-24.5c13.5,0,24.5,11,24.5,24.5C-257.1,2892.9-268.2,2903.9-281.7,2903.9z"/>
	<path class="st0" d="M-47,2842.6c-10.4,0-19.9,3.8-26.6,10.8c-6.6,6.7-10.2,16-10.2,26.1c0,10.1,3.5,19.4,9.9,26
		c6.8,7.1,16.1,10.8,26.9,10.8c11.7,0,23.7-5.7,30.1-14.1l-9.8-7.4c-4.1,5.4-12.4,9.2-20.2,9.2c-12.8,0-21.9-7.4-24-19h59.6v-6.1
		c0-9.8-3.5-18.8-9.7-25.5C-27.7,2846.4-36.8,2842.6-47,2842.6z M-70.7,2872.6c2.6-10.7,11.7-17.8,23.8-17.8
		c11.6,0,20.3,7.1,22.7,17.8H-70.7z"/>
</g>
<g>
	<path class="st0" d="M-183.2,2842.6c-20.3,0-36.8,16.5-36.8,36.8s16.5,36.8,36.8,36.8s36.8-16.5,36.8-36.8
		S-162.9,2842.6-183.2,2842.6z M-183.2,2903.9c-13.5,0-24.5-11-24.5-24.5c0-13.5,11-24.5,24.5-24.5c13.5,0,24.5,11,24.5,24.5
		C-158.7,2892.9-169.7,2903.9-183.2,2903.9z"/>
	<rect x="-121.2" y="2803.9" class="st0" width="12.3" height="110.4"/>
	<polygon class="st0" points="15.6,2844.4 15.6,2914.4 27.9,2914.4 27.9,2856.7 52.4,2856.7 52.4,2914.4 64.7,2914.4 64.7,2856.7 
		89.2,2856.7 89.2,2914.4 101.5,2914.4 101.5,2844.4 	"/>
	<path class="st0" d="M-242.6,2831.7l-17.7,17.7c-6-4.3-13.4-6.8-21.3-6.8c-20.3,0-36.8,16.5-36.8,36.8c0,18.2,13.3,33.4,30.7,36.3
		v13.3c-17.4,2.9-30.7,18.1-30.7,36.3c0,20.3,16.5,36.8,36.8,36.8c20.3,0,36.8-16.5,36.8-36.8c0-18.2-13.3-33.4-30.7-36.3v-13.3
		c17.4-2.9,30.7-18.1,30.7-36.3c0-7.9-2.5-15.3-6.8-21.3l17.7-17.7L-242.6,2831.7z M-257.1,2965.3c0,13.5-11,24.5-24.5,24.5
		c-13.5,0-24.5-11-24.5-24.5s11-24.5,24.5-24.5C-268.2,2940.7-257.1,2951.7-257.1,2965.3z M-281.7,2903.9c-13.5,0-24.5-11-24.5-24.5
		c0-13.5,11-24.5,24.5-24.5c13.5,0,24.5,11,24.5,24.5C-257.1,2892.9-268.2,2903.9-281.7,2903.9z"/>
	<path class="st0" d="M-47,2842.6c-10.4,0-19.9,3.8-26.6,10.8c-6.6,6.7-10.2,16-10.2,26.1c0,10.1,3.5,19.4,9.9,26
		c6.8,7.1,16.1,10.8,26.9,10.8c11.7,0,23.7-5.7,30.1-14.1l-9.8-7.4c-4.1,5.4-12.4,9.2-20.2,9.2c-12.8,0-21.9-7.4-24-19h59.6v-6.1
		c0-9.8-3.5-18.8-9.7-25.5C-27.7,2846.4-36.8,2842.6-47,2842.6z M-70.7,2872.6c2.6-10.7,11.7-17.8,23.8-17.8
		c11.6,0,20.3,7.1,22.7,17.8H-70.7z"/>
</g>
<g>
	<path class="st0" d="M-183.2,2842.6c-20.3,0-36.8,16.5-36.8,36.8s16.5,36.8,36.8,36.8s36.8-16.5,36.8-36.8
		S-162.9,2842.6-183.2,2842.6z M-183.2,2903.9c-13.5,0-24.5-11-24.5-24.5c0-13.5,11-24.5,24.5-24.5c13.5,0,24.5,11,24.5,24.5
		C-158.7,2892.9-169.7,2903.9-183.2,2903.9z"/>
	<rect x="-121.2" y="2803.9" class="st0" width="12.3" height="110.4"/>
	<polygon class="st0" points="15.6,2844.4 15.6,2914.4 27.9,2914.4 27.9,2856.7 52.4,2856.7 52.4,2914.4 64.7,2914.4 64.7,2856.7 
		89.2,2856.7 89.2,2914.4 101.5,2914.4 101.5,2844.4 	"/>
	<path class="st0" d="M-242.6,2831.7l-17.7,17.7c-6-4.3-13.4-6.8-21.3-6.8c-20.3,0-36.8,16.5-36.8,36.8c0,18.2,13.3,33.4,30.7,36.3
		v13.3c-17.4,2.9-30.7,18.1-30.7,36.3c0,20.3,16.5,36.8,36.8,36.8c20.3,0,36.8-16.5,36.8-36.8c0-18.2-13.3-33.4-30.7-36.3v-13.3
		c17.4-2.9,30.7-18.1,30.7-36.3c0-7.9-2.5-15.3-6.8-21.3l17.7-17.7L-242.6,2831.7z M-257.1,2965.3c0,13.5-11,24.5-24.5,24.5
		c-13.5,0-24.5-11-24.5-24.5s11-24.5,24.5-24.5C-268.2,2940.7-257.1,2951.7-257.1,2965.3z M-281.7,2903.9c-13.5,0-24.5-11-24.5-24.5
		c0-13.5,11-24.5,24.5-24.5c13.5,0,24.5,11,24.5,24.5C-257.1,2892.9-268.2,2903.9-281.7,2903.9z"/>
	<path class="st0" d="M-47,2842.6c-10.4,0-19.9,3.8-26.6,10.8c-6.6,6.7-10.2,16-10.2,26.1c0,10.1,3.5,19.4,9.9,26
		c6.8,7.1,16.1,10.8,26.9,10.8c11.7,0,23.7-5.7,30.1-14.1l-9.8-7.4c-4.1,5.4-12.4,9.2-20.2,9.2c-12.8,0-21.9-7.4-24-19h59.6v-6.1
		c0-9.8-3.5-18.8-9.7-25.5C-27.7,2846.4-36.8,2842.6-47,2842.6z M-70.7,2872.6c2.6-10.7,11.7-17.8,23.8-17.8
		c11.6,0,20.3,7.1,22.7,17.8H-70.7z"/>
</g>
<g>
	<path class="st0" d="M-183.2,2842.6c-20.3,0-36.8,16.5-36.8,36.8s16.5,36.8,36.8,36.8s36.8-16.5,36.8-36.8
		S-162.9,2842.6-183.2,2842.6z M-183.2,2903.9c-13.5,0-24.5-11-24.5-24.5c0-13.5,11-24.5,24.5-24.5c13.5,0,24.5,11,24.5,24.5
		C-158.7,2892.9-169.7,2903.9-183.2,2903.9z"/>
	<rect x="-121.2" y="2803.9" class="st0" width="12.3" height="110.4"/>
	<polygon class="st0" points="15.6,2844.4 15.6,2914.4 27.9,2914.4 27.9,2856.7 52.4,2856.7 52.4,2914.4 64.7,2914.4 64.7,2856.7 
		89.2,2856.7 89.2,2914.4 101.5,2914.4 101.5,2844.4 	"/>
	<path class="st0" d="M-242.6,2831.7l-17.7,17.7c-6-4.3-13.4-6.8-21.3-6.8c-20.3,0-36.8,16.5-36.8,36.8c0,18.2,13.3,33.4,30.7,36.3
		v13.3c-17.4,2.9-30.7,18.1-30.7,36.3c0,20.3,16.5,36.8,36.8,36.8c20.3,0,36.8-16.5,36.8-36.8c0-18.2-13.3-33.4-30.7-36.3v-13.3
		c17.4-2.9,30.7-18.1,30.7-36.3c0-7.9-2.5-15.3-6.8-21.3l17.7-17.7L-242.6,2831.7z M-257.1,2965.3c0,13.5-11,24.5-24.5,24.5
		c-13.5,0-24.5-11-24.5-24.5s11-24.5,24.5-24.5C-268.2,2940.7-257.1,2951.7-257.1,2965.3z M-281.7,2903.9c-13.5,0-24.5-11-24.5-24.5
		c0-13.5,11-24.5,24.5-24.5c13.5,0,24.5,11,24.5,24.5C-257.1,2892.9-268.2,2903.9-281.7,2903.9z"/>
	<path class="st0" d="M-47,2842.6c-10.4,0-19.9,3.8-26.6,10.8c-6.6,6.7-10.2,16-10.2,26.1c0,10.1,3.5,19.4,9.9,26
		c6.8,7.1,16.1,10.8,26.9,10.8c11.7,0,23.7-5.7,30.1-14.1l-9.8-7.4c-4.1,5.4-12.4,9.2-20.2,9.2c-12.8,0-21.9-7.4-24-19h59.6v-6.1
		c0-9.8-3.5-18.8-9.7-25.5C-27.7,2846.4-36.8,2842.6-47,2842.6z M-70.7,2872.6c2.6-10.7,11.7-17.8,23.8-17.8
		c11.6,0,20.3,7.1,22.7,17.8H-70.7z"/>
</g>
<g>
	<path class="st1" d="M-123.3,26.7c-6.3,0-11.4,5.1-11.4,11.4s5.1,11.4,11.4,11.4c6.3,0,11.4-5.1,11.4-11.4S-116.9,26.7-123.3,26.7z
		 M-123.3,45.8c-4.2,0-7.6-3.4-7.6-7.6s3.4-7.6,7.6-7.6s7.6,3.4,7.6,7.6S-119.1,45.8-123.3,45.8z"/>
	<rect x="-104" y="14.7" class="st1" width="3.8" height="34.3"/>
	<polygon class="st1" points="-61.5,27.3 -61.5,49 -57.7,49 -57.7,31.1 -50,31.1 -50,49 -46.2,49 -46.2,31.1 -38.6,31.1 -38.6,49 
		-34.8,49 -34.8,27.3 	"/>
	<path class="st1" d="M-141.7,23.3l-5.5,5.5c-1.9-1.3-4.2-2.1-6.6-2.1c-6.3,0-11.4,5.1-11.4,11.4c0,5.7,4.1,10.4,9.5,11.3v4.1
		c-5.4,0.9-9.5,5.6-9.5,11.3c0,6.3,5.1,11.4,11.4,11.4s11.4-5.1,11.4-11.4c0-5.7-4.1-10.4-9.5-11.3v-4.1c5.4-0.9,9.5-5.6,9.5-11.3
		c0-2.5-0.8-4.8-2.1-6.6l5.5-5.5L-141.7,23.3z M-146.2,64.9c0,4.2-3.4,7.6-7.6,7.6c-4.2,0-7.6-3.4-7.6-7.6c0-4.2,3.4-7.6,7.6-7.6
		C-149.7,57.2-146.2,60.7-146.2,64.9z M-153.9,45.8c-4.2,0-7.6-3.4-7.6-7.6s3.4-7.6,7.6-7.6c4.2,0,7.6,3.4,7.6,7.6
		S-149.7,45.8-153.9,45.8z"/>
	<path class="st1" d="M-80.9,26.7c-3.2,0-6.2,1.2-8.3,3.3c-2,2.1-3.2,5-3.2,8.1c0,3.1,1.1,6,3.1,8.1c2.1,2.2,5,3.4,8.4,3.4
		c3.6,0,7.4-1.8,9.3-4.4l-3.1-2.3c-1.3,1.7-3.9,2.9-6.3,2.9c-4,0-6.8-2.3-7.5-5.9h18.5V38c0-3-1.1-5.8-3-7.9
		C-74.9,27.9-77.8,26.7-80.9,26.7z M-88.3,36.1c0.8-3.3,3.6-5.5,7.4-5.5c3.6,0,6.3,2.2,7,5.5H-88.3z"/>
</g>
<rect x="-134.6" y="57.3" class="st1" width="99.9" height="15.3"/>
<g>
	<path class="st2" d="M-126.2,65.6c0,1.4,0.4,2,1.8,2s1.8-0.8,1.8-2.1v-4.2h1.1v4.2c0,2.2-0.8,3.1-2.9,3.1c-2,0-2.9-0.8-2.9-3.1
		v-4.2h1.1V65.6z"/>
	<path class="st2" d="M-114.8,62.5v5.9h-1.1v-7.2h1.6l3.2,5.9v-5.9h1.1v7.2h-1.6L-114.8,62.5z"/>
	<path class="st2" d="M-99.5,67.5v1h-4.8v-7.2h1.1v6.2H-99.5z"/>
	<path class="st2" d="M-94.6,68.4v-7.2h1.1v7.2H-94.6z"/>
	<path class="st2" d="M-86.6,62.4v6h-1.1v-7.2h1.8l1.8,5.9l1.8-5.9h1.8v7.2h-1.1v-6l-1.9,6h-1.2L-86.6,62.4z"/>
	<path class="st2" d="M-74.8,68.4v-7.2h1.1v7.2H-74.8z"/>
	<path class="st2" d="M-68.8,62.2v-1h5.7v1h-2.3v6.2h-1.1v-6.2H-68.8z"/>
	<path class="st2" d="M-53.1,61.3v1H-57v2h3.6v0.9H-57v2.3h3.8v1h-5v-7.2H-53.1z"/>
	<path class="st2" d="M-42,64.8c0,2.8-1.7,3.6-4,3.6h-2v-7.2h2C-43.7,61.3-42,62.1-42,64.8z M-46.8,62.2v5.3h0.8
		c1.4,0,2.8-0.3,2.8-2.7c0-2.4-1.4-2.6-2.8-2.6H-46.8z"/>
</g>
<g>
	<path class="st3" d="M56.7,26.7c-6.3,0-11.4,5.1-11.4,11.4s5.1,11.4,11.4,11.4s11.4-5.1,11.4-11.4S63.1,26.7,56.7,26.7z M56.7,45.8
		c-4.2,0-7.6-3.4-7.6-7.6s3.4-7.6,7.6-7.6s7.6,3.4,7.6,7.6S60.9,45.8,56.7,45.8z"/>
	<rect x="76" y="14.7" class="st3" width="3.8" height="34.3"/>
	<polygon class="st3" points="118.5,27.3 118.5,49 122.3,49 122.3,31.1 130,31.1 130,49 133.8,49 133.8,31.1 141.4,31.1 141.4,49 
		145.2,49 145.2,27.3 	"/>
	<path class="st3" d="M38.3,23.3l-5.5,5.5c-1.9-1.3-4.2-2.1-6.6-2.1c-6.3,0-11.4,5.1-11.4,11.4c0,5.7,4.1,10.4,9.5,11.3v4.1
		c-5.4,0.9-9.5,5.6-9.5,11.3c0,6.3,5.1,11.4,11.4,11.4s11.4-5.1,11.4-11.4c0-5.7-4.1-10.4-9.5-11.3v-4.1c5.4-0.9,9.5-5.6,9.5-11.3
		c0-2.5-0.8-4.8-2.1-6.6L41,26L38.3,23.3z M33.8,64.9c0,4.2-3.4,7.6-7.6,7.6s-7.6-3.4-7.6-7.6c0-4.2,3.4-7.6,7.6-7.6
		S33.8,60.7,33.8,64.9z M26.1,45.8c-4.2,0-7.6-3.4-7.6-7.6s3.4-7.6,7.6-7.6s7.6,3.4,7.6,7.6S30.3,45.8,26.1,45.8z"/>
	<path class="st3" d="M99.1,26.7c-3.2,0-6.2,1.2-8.3,3.3c-2,2.1-3.2,5-3.2,8.1c0,3.1,1.1,6,3.1,8.1c2.1,2.2,5,3.4,8.4,3.4
		c3.6,0,7.4-1.8,9.3-4.4l-3.1-2.3c-1.3,1.7-3.9,2.9-6.3,2.9c-4,0-6.8-2.3-7.5-5.9h18.5V38c0-3-1.1-5.8-3-7.9
		C105.1,27.9,102.2,26.7,99.1,26.7z M91.7,36.1c0.8-3.3,3.6-5.5,7.4-5.5c3.6,0,6.3,2.2,7,5.5H91.7z"/>
</g>
<rect x="45.4" y="57.3" class="st3" width="99.9" height="15.3"/>
<g>
	<path class="st2" d="M53.8,65.6c0,1.4,0.4,2,1.8,2c1.3,0,1.8-0.8,1.8-2.1v-4.2h1.1v4.2c0,2.2-0.8,3.1-2.9,3.1c-2,0-2.9-0.8-2.9-3.1
		v-4.2h1.1V65.6z"/>
	<path class="st2" d="M65.2,62.5v5.9h-1.1v-7.2h1.6l3.2,5.9v-5.9h1.1v7.2h-1.6L65.2,62.5z"/>
	<path class="st2" d="M80.5,67.5v1h-4.8v-7.2h1.1v6.2H80.5z"/>
	<path class="st2" d="M85.4,68.4v-7.2h1.1v7.2H85.4z"/>
	<path class="st2" d="M93.4,62.4v6h-1.1v-7.2h1.8l1.8,5.9l1.8-5.9h1.8v7.2h-1.1v-6l-1.9,6h-1.2L93.4,62.4z"/>
	<path class="st2" d="M105.2,68.4v-7.2h1.1v7.2H105.2z"/>
	<path class="st2" d="M111.2,62.2v-1h5.7v1h-2.3v6.2h-1.1v-6.2H111.2z"/>
	<path class="st2" d="M126.9,61.3v1H123v2h3.6v0.9H123v2.3h3.8v1h-5v-7.2H126.9z"/>
	<path class="st2" d="M138,64.8c0,2.8-1.7,3.6-4,3.6h-2v-7.2h2C136.3,61.3,138,62.1,138,64.8z M133.2,62.2v5.3h0.8
		c1.4,0,2.8-0.3,2.8-2.7c0-2.4-1.4-2.6-2.8-2.6H133.2z"/>
</g>
</svg>
