<svg id="Layer_1" data-name="Layer 1" xmlns="http://www.w3.org/2000/svg" viewBox="0 0 24 24"><title>unlimited-</title><path d="M0,0H24V24H0Z" style="fill:none"/><path d="M16.63,14.48a1.42,1.42,0,0,0-.39-.33,1.23,1.23,0,0,0-.5-.16,1.31,1.31,0,0,0,.36-.23,2.44,2.44,0,0,0,.27-.3,1.31,1.31,0,0,0,.16-.36A1.57,1.57,0,0,0,16.47,12a1.11,1.11,0,0,0-.37-.49,1.73,1.73,0,0,0-.59-.3v-1a.31.31,0,0,0-.33-.33.31.31,0,0,0-.33.33v.88h-.72v-.88a.33.33,0,1,0-.66,0v.88h-.29a.48.48,0,0,0-.2.07c-.07,0-.1.13-.1.26v5.63c0,.13,0,.23.1.27s.13,0,.2,0h.29v.95a.33.33,0,1,0,.66,0v-.95h.76v.95a.31.31,0,0,0,.33.33.31.31,0,0,0,.33-.33v-1a1.38,1.38,0,0,0,.42-.13,1.54,1.54,0,0,0,.43-.26,1.88,1.88,0,0,0,.33-.36,1.31,1.31,0,0,0,.2-.47,2.13,2.13,0,0,0,0-1.15A1.89,1.89,0,0,0,16.63,14.48Zm-2.93-2.7h.86a1.57,1.57,0,0,1,.59,0,.74.74,0,0,1,.36.19.67.67,0,0,1,.2.33,1.84,1.84,0,0,1,.07.43,2,2,0,0,1-.07.4.6.6,0,0,1-.2.32,1.33,1.33,0,0,1-.33.24,1.21,1.21,0,0,1-.52.09h-1ZM16,16.09a.77.77,0,0,1-.26.33.75.75,0,0,1-.37.2,2,2,0,0,1-.49.07H13.7V14.48h1a3,3,0,0,1,.66.07.9.9,0,0,1,.43.23,2,2,0,0,1,.26.36,1.19,1.19,0,0,1,.1.49A1.11,1.11,0,0,1,16,16.09Zm4.87,3.13-1.32-1.31a6.07,6.07,0,0,0,1.19-3.63,6.13,6.13,0,0,0-6.12-6.12A6.22,6.22,0,0,0,11,9.35L9.23,7.54s0,0-.07,0a20.6,20.6,0,0,1,8.59-3.42A.3.3,0,0,0,18,4a.49.49,0,0,0,.1-.13.33.33,0,0,0-.16-.43,10.76,10.76,0,0,0-10.77,2s0,0-.06-.07l-1-1a.78.78,0,0,0-1,.1l-.66.66a1,1,0,0,0-.26.5.61.61,0,0,0,.16.55l1,1,.06.07A10.8,10.8,0,0,0,3.47,17.81a.3.3,0,0,0,.29.19.21.21,0,0,0,.13,0,.39.39,0,0,0,.14-.1.34.34,0,0,0,.13-.23A19.11,19.11,0,0,1,7.45,9.28s0,0,0,.07l1.94,1.94a6.2,6.2,0,0,0-.79,3,6.09,6.09,0,0,0,9.09,5.3L19.13,21a.93.93,0,0,0,.6.26.64.64,0,0,0,.49-.2l.76-.75A.76.76,0,0,0,20.91,19.22ZM4.82,5.73a.23.23,0,0,1,.06-.17l.66-.66c.07-.06.13-.06.13-.09l1,1a.19.19,0,0,1-.07.16l-.66.66c-.06.07-.1.07-.13.07Zm2.63,2.5s-.1.1-.1.16a18.36,18.36,0,0,0-3.65,8,10.17,10.17,0,0,1,3-9.74,10.19,10.19,0,0,1,9.78-3A19.12,19.12,0,0,0,8.37,7.37l-.16.1ZM8,8.85a.21.21,0,0,1-.07-.13c.13-.13.23-.26.36-.39l0,0c.14-.13.27-.26.4-.36s.07,0,.13.07l1.78,1.78a6.64,6.64,0,0,0-.82.92Zm6.74,10.87a5.45,5.45,0,1,1,5.47-5.47A5.45,5.45,0,0,1,14.72,19.72Zm5.07.85a.14.14,0,0,1-.16-.06l-1.32-1.32a7.1,7.1,0,0,0,.92-.82l1.25,1.28a.25.25,0,0,1,.07.16Z"/></svg>